<svg width="64" height="64" viewBox="0 0 64 64" fill="none" xmlns="http://www.w3.org/200/svg">
  <rect width="64" height="64" rx="16" fill="#1B6B3A"/>
  <path d="M32 14c-7 0-12 5-12 12v4h-3a2 2 0 0 0-2 2v16a2 2 0 0 0 2 2h30a2 2 0 0 0 2-2V32a2 2 0 0 0-2-2h-3v-4c0-7-5-12-12-12z" fill="#fff"/>
  <path d="M32 20c-3.3 0-6 2.7-6 6v4h12v-4c0-3.3-2.7-6-6-6z" fill="#1B6B3A"/>
  <circle cx="26" cy="38" r="2.5" fill="#1B6B3A"/>
  <circle cx="38" cy="38" r="2.5" fill="#1B6B3A"/>
  <path d="M26 46c2 2 4 3 6 3s4-1 6-3" stroke="#1B6B3A" stroke-width="2.5" stroke-linecap="round" fill="none"/>
  <circle cx="50" cy="16" r="5" fill="#F4C430"/>
</svg>
